<?xml version="1.0" standalone="no"?>
<!DOCTYPE svg PUBLIC "-//W3C//DTD SVG 20010904//EN"
 "http://www.w3.org/TR/2001/REC-SVG-20010904/DTD/svg10.dtd">
<svg version="1.0" xmlns="http://www.w3.org/2000/svg"
 width="1222.000000pt" height="1238.000000pt" viewBox="0 0 1222.000000 1238.000000"
 preserveAspectRatio="xMidYMid meet">
<metadata>
Created by potrace 1.16, written by Peter Selinger 2001-2019
</metadata>
<g transform="translate(0.000000,1238.000000) scale(0.100000,-0.100000)"
fill="#000000" stroke="none">
<path d="M9905 12295 c-172 -16 -328 -33 -420 -45 -480 -65 -702 -101 -1265
-205 -525 -98 -1416 -304 -2071 -480 -156 -42 -309 -83 -339 -91 -77 -21 -254
-71 -325 -94 -33 -10 -125 -37 -205 -60 -153 -45 -189 -56 -475 -145 -958
-300 -1878 -648 -2630 -995 -424 -195 -535 -260 -659 -386 -111 -114 -200
-276 -253 -460 l-28 -99 1 -460 c1 -946 96 -1851 290 -2770 313 -1481 902
-2775 1725 -3790 54 -66 109 -133 124 -150 14 -16 54 -61 88 -100 136 -154
417 -435 557 -556 47 -41 87 -76 90 -79 45 -46 334 -271 488 -379 408 -288
931 -557 1330 -686 63 -20 90 -17 221 25 184 58 356 128 576 235 638 310 1228
757 1764 1335 736 796 1303 1807 1691 3015 87 273 129 430 265 990 35 143 112
577 164 920 33 215 83 668 101 900 42 567 43 594 45 1770 1 633 5 1404 9 1715
7 502 6 574 -8 642 -56 264 -197 427 -417 482 -78 19 -230 19 -434 1z m276
-281 c30 -9 74 -27 98 -41 52 -30 131 -101 131 -117 0 -6 -62 -33 -138 -60
-378 -136 -894 -341 -1162 -463 -36 -17 -119 -54 -185 -84 -66 -29 -239 -113
-385 -185 -555 -275 -1042 -564 -1410 -838 -96 -71 -146 -95 -400 -191 -63
-24 -290 -112 -504 -195 -214 -82 -394 -150 -400 -150 -6 1 0 10 14 21 14 12
39 33 55 48 28 25 329 276 368 307 176 140 398 307 534 402 585 409 977 648
1498 912 636 322 1128 504 1725 638 67 14 100 14 161 -4z m-2266 -313 c-335
-144 -417 -182 -741 -343 -255 -128 -511 -264 -619 -329 -17 -10 -42 -24 -55
-31 -112 -59 -547 -331 -752 -470 -208 -142 -232 -159 -403 -288 -294 -223
-555 -440 -780 -649 -124 -116 -398 -393 -495 -501 -52 -58 -102 -111 -112
-118 -9 -7 -275 -112 -590 -233 -315 -121 -613 -236 -663 -255 -189 -74 -748
-290 -1074 -415 -84 -32 -156 -57 -161 -54 -4 2 -8 28 -9 57 -1 29 -6 152 -11
273 -15 337 -13 647 5 751 50 287 200 529 419 671 84 55 520 267 729 354 l69
29 58 -30 c33 -17 64 -30 70 -30 5 0 56 37 113 83 215 175 200 167 641 333
109 41 201 72 205 68 3 -4 0 -9 -7 -11 -54 -20 -682 -584 -682 -613 0 -3 19
-15 43 -26 23 -11 96 -48 163 -82 l121 -62 174 172 c156 155 340 320 499 449
93 76 371 282 450 334 41 28 77 53 80 56 19 21 276 170 316 182 322 100 351
108 728 217 136 39 250 70 252 67 2 -2 -47 -29 -109 -60 -334 -170 -551 -296
-880 -515 -432 -286 -767 -557 -1054 -854 -100 -104 -173 -184 -173 -189 0 -3
77 -43 171 -89 l170 -85 67 75 c85 98 301 313 422 421 581 521 1508 1114 2385
1524 55 26 118 53 140 61 77 29 959 222 1015 223 14 0 -47 -30 -135 -68z
m1845 -1012 c39 -20 83 -58 104 -92 16 -24 222 -531 231 -569 5 -21 -1 -25
-72 -52 -43 -16 -83 -31 -89 -33 -7 -3 -31 45 -59 116 -26 67 -49 121 -51 121
-2 0 -84 -32 -182 -71 -97 -39 -203 -82 -235 -95 l-58 -23 -18 42 c-32 75 -54
137 -50 141 6 4 217 90 352 143 132 52 125 40 81 141 -13 29 -30 55 -38 58 -8
3 -137 -44 -288 -104 -213 -86 -274 -114 -276 -129 -2 -11 47 -144 108 -297
62 -153 108 -282 103 -286 -13 -12 -165 -71 -170 -66 -3 3 -56 133 -119 291
-103 258 -114 292 -114 348 0 77 24 133 76 176 39 33 496 225 609 256 56 15
104 11 155 -16z m-839 -698 c82 -206 149 -379 149 -385 0 -9 -151 -76 -172
-76 -4 0 -155 74 -337 164 -182 90 -331 160 -331 155 0 -5 45 -120 99 -256 55
-136 97 -251 93 -255 -10 -9 -173 -71 -176 -66 -1 1 -70 174 -154 383 -85 216
-147 384 -142 389 12 12 148 66 165 66 8 0 162 -72 341 -160 180 -88 329 -159
331 -156 2 2 0 12 -6 23 -14 23 -191 470 -191 480 0 10 150 72 168 70 7 -1 79
-166 163 -376z m-902 -367 c84 -212 152 -386 150 -388 -21 -16 -172 -67 -178
-60 -8 9 -297 727 -303 753 -2 9 24 25 77 46 44 18 85 33 90 34 6 0 79 -173
164 -385z m-388 259 c6 -16 22 -55 34 -89 l24 -61 -170 -67 c-93 -38 -171 -71
-173 -74 -2 -4 48 -135 110 -291 63 -156 114 -289 114 -295 0 -11 -167 -82
-175 -75 -1 2 -55 134 -118 293 -64 158 -117 290 -120 292 -2 2 -76 -25 -166
-61 -89 -36 -168 -65 -175 -65 -16 0 -84 172 -71 177 6 2 199 80 430 173 231
93 426 169 433 169 7 1 17 -11 23 -26z m2559 -198 c16 -17 24 -38 24 -62 1
-28 8 -44 29 -63 19 -17 28 -35 29 -58 2 -65 -14 -77 -179 -142 -84 -33 -157
-60 -161 -60 -6 0 -111 262 -114 285 -2 15 271 124 313 124 26 1 42 -6 59 -24z
m-363 -216 c49 -119 54 -165 20 -197 -12 -11 -75 -41 -140 -66 -112 -44 -119
-45 -152 -32 -18 8 -40 27 -48 43 -18 35 -87 204 -87 214 0 7 61 31 66 26 2
-1 21 -47 43 -102 23 -54 45 -103 49 -107 9 -9 176 52 205 75 14 11 12 23 -23
111 -22 55 -40 105 -40 111 0 13 39 35 55 31 6 -1 29 -49 52 -107z m-3015
-315 c81 -203 149 -375 150 -383 3 -13 -139 -81 -169 -81 -7 0 -161 74 -343
164 -181 90 -330 161 -330 158 0 -4 45 -119 100 -256 55 -138 97 -253 93 -257
-17 -16 -166 -70 -173 -62 -4 4 -69 161 -143 348 -75 187 -143 357 -151 378
l-16 38 44 19 c24 10 66 26 93 36 l48 17 329 -162 c181 -89 331 -160 333 -158
2 2 -42 116 -97 253 -54 137 -96 252 -92 256 12 11 156 67 167 64 5 -1 76
-169 157 -372z m2391 70 c21 -54 42 -103 47 -108 5 -5 55 10 115 35 103 41
108 42 121 24 30 -41 19 -49 -128 -109 -78 -31 -145 -53 -149 -49 -5 5 -33 70
-62 145 -55 139 -56 146 -17 161 28 10 34 1 73 -99z m1347 -226 c0 -488 -26
-1093 -66 -1523 -16 -176 -61 -575 -69 -610 -3 -13 -24 -28 -57 -42 -304 -127
-524 -220 -993 -420 -302 -129 -599 -257 -660 -283 -60 -26 -290 -126 -510
-220 -220 -95 -503 -217 -630 -272 -126 -55 -396 -172 -600 -260 -203 -88
-440 -191 -525 -228 -85 -37 -261 -114 -390 -170 -129 -56 -311 -136 -405
-177 -93 -42 -179 -79 -190 -83 -11 -4 -45 -19 -75 -33 -30 -14 -138 -61 -240
-105 -603 -261 -1047 -460 -1200 -538 -515 -261 -837 -554 -934 -849 -9 -28
-22 -91 -29 -140 l-13 -89 -76 119 c-367 582 -678 1257 -893 1940 -80 254 -83
267 -116 384 -17 63 -33 120 -35 126 -3 7 47 34 128 69 73 32 183 80 243 106
61 27 200 87 310 134 110 48 209 91 220 96 11 5 110 48 220 96 110 47 256 111
325 141 69 30 202 88 295 128 94 40 280 121 415 180 135 59 290 126 345 150
55 23 206 88 335 145 129 56 352 153 495 215 332 144 738 320 1025 445 512
222 779 338 1025 445 143 62 382 165 530 230 149 64 335 145 415 180 80 34
219 95 310 135 91 39 246 107 345 150 294 127 410 177 1070 464 347 151 636
275 643 275 9 1 12 -68 12 -311z m-1475 261 c4 -17 3 -34 -1 -38 -5 -4 -58
-27 -118 -52 -59 -24 -110 -49 -113 -55 -6 -15 47 -144 59 -144 5 0 60 20 121
45 62 25 117 45 123 45 14 0 34 -59 23 -66 -6 -3 -58 -26 -117 -50 -175 -72
-207 -62 -263 81 -26 68 -28 82 -18 112 6 18 21 40 34 49 26 17 234 103 252
104 6 0 14 -14 18 -31z m-3286 -170 c17 -44 31 -86 31 -92 0 -7 -142 -68 -315
-137 -222 -88 -315 -129 -315 -140 0 -16 36 -100 43 -100 2 0 138 54 301 119
l297 120 18 -42 c32 -76 54 -137 50 -141 -2 -2 -130 -54 -284 -116 -154 -62
-288 -116 -297 -121 -16 -9 -16 -13 6 -62 14 -32 29 -51 37 -49 8 2 149 57
314 123 165 65 305 119 310 119 9 0 75 -152 75 -171 0 -7 -819 -334 -824 -328
-14 17 -305 764 -299 770 8 7 802 328 815 329 3 0 20 -36 37 -81z m2404 -161
c3 -7 22 -53 42 -103 20 -49 40 -93 44 -98 4 -4 52 11 106 33 54 22 104 40
110 40 12 0 42 -57 34 -64 -8 -6 -292 -116 -294 -114 -6 8 -115 291 -113 293
33 25 64 30 71 13z m-91 -83 c23 -27 62 -113 73 -164 8 -39 -16 -86 -56 -107
-17 -8 -72 -31 -122 -51 -138 -53 -168 -41 -219 90 -32 82 -33 97 -14 135 16
32 29 39 146 87 106 43 161 46 192 10z m-3307 -119 c94 -40 174 -161 183 -277
9 -125 -37 -203 -148 -252 l-55 -25 158 -78 c86 -43 157 -82 157 -85 0 -4 -8
-9 -17 -12 -10 -2 -64 -23 -121 -45 l-103 -41 -274 137 c-151 75 -275 139
-275 142 0 3 100 45 223 94 251 100 267 108 267 138 0 37 -40 108 -64 114 -27
6 -586 -213 -586 -231 0 -6 51 -139 114 -295 62 -157 112 -288 110 -291 -5 -8
-174 -73 -177 -68 -9 11 -309 771 -306 773 4 3 571 229 709 282 93 36 152 42
205 20z m2910 -31 c19 -18 25 -35 25 -70 0 -25 4 -45 8 -45 5 0 18 -9 30 -20
30 -29 30 -89 0 -117 -21 -19 -291 -133 -316 -133 -13 0 -125 281 -115 291 18
17 281 117 311 118 22 1 41 -7 57 -24z m-389 -136 c18 -36 15 -40 -46 -62 -78
-30 -77 -24 -31 -135 22 -55 41 -107 41 -116 0 -13 -56 -34 -65 -24 -2 1 -21
48 -43 103 -23 56 -47 101 -56 103 -8 2 -38 -7 -66 -19 -55 -23 -65 -20 -75
22 -6 26 -3 28 157 92 90 36 164 66 165 67 1 0 10 -14 19 -31z m-332 -235 c52
-128 53 -159 10 -193 -31 -24 -228 -101 -259 -101 -43 0 -74 40 -120 155 l-43
110 25 13 c13 8 30 11 37 9 8 -3 30 -50 51 -104 21 -54 42 -101 48 -104 10 -7
194 64 211 81 5 5 -8 50 -33 112 -22 57 -41 107 -41 111 0 8 37 25 56 26 6 1
32 -51 58 -115z m-3239 -27 c100 -39 127 -76 214 -296 61 -153 71 -186 71
-240 0 -75 -19 -124 -68 -174 -48 -50 -62 -57 -352 -173 -220 -88 -252 -98
-310 -98 -101 -1 -180 40 -225 118 -13 23 -53 116 -89 207 -76 192 -82 239
-42 325 35 74 83 116 184 157 381 156 467 186 527 186 33 0 74 -6 90 -12z
m2816 -34 c5 -14 8 -31 6 -37 -2 -6 -55 -31 -118 -57 -94 -38 -113 -50 -111
-65 2 -11 6 -21 8 -23 2 -2 54 17 116 43 62 25 116 42 120 38 4 -4 10 -21 13
-37 6 -30 5 -30 -92 -68 -137 -52 -130 -45 -105 -110 l21 -55 -31 -11 c-18 -6
-35 -8 -39 -4 -4 5 -32 70 -63 146 l-55 139 52 21 c115 49 252 105 260 106 4
0 12 -11 18 -26z m-3641 -674 c84 -210 149 -384 144 -388 -5 -5 -40 -20 -79
-36 -38 -15 -75 -29 -81 -32 -10 -4 -314 735 -314 763 0 11 134 72 161 73 13
1 53 -90 169 -380z m-358 211 c15 -41 29 -81 31 -88 1 -8 -115 -59 -313 -138
-173 -69 -317 -128 -319 -130 -6 -5 20 -81 33 -100 10 -13 21 -11 86 16 41 17
131 53 200 80 141 55 228 90 282 114 28 12 38 13 46 3 11 -14 62 -148 62 -163
0 -5 -118 -57 -262 -114 -145 -57 -279 -111 -299 -121 l-36 -18 57 -143 c32
-78 57 -145 55 -149 -6 -8 -175 -73 -178 -68 -16 22 -304 766 -299 771 11 11
806 327 816 325 5 -2 22 -36 38 -77z m7812 -1217 c-4 -21 -16 -56 -27 -78 -11
-22 -48 -105 -82 -185 -35 -80 -104 -237 -155 -350 -51 -113 -107 -239 -125
-280 -64 -148 -156 -356 -177 -400 -11 -25 -36 -81 -55 -125 -62 -141 -74
-168 -113 -255 -21 -47 -99 -222 -173 -390 -74 -168 -144 -326 -155 -350 -12
-25 -163 -367 -337 -760 -175 -393 -368 -830 -430 -970 -141 -319 -146 -330
-140 -340 8 -13 -278 -303 -435 -443 -187 -166 -192 -170 -220 -190 -23 -16
-133 -17 -1727 -17 l-1703 0 -122 103 c-156 130 -550 511 -560 541 -2 6 827
10 2167 12 1194 1 2173 2 2176 3 3 0 9 66 12 146 l7 145 68 123 c86 153 104
185 186 329 127 225 199 354 246 438 45 81 120 214 380 675 62 110 177 313
255 450 78 138 168 297 200 355 95 172 379 676 617 1095 138 242 161 285 154
285 -3 0 -44 -66 -92 -147 -48 -82 -119 -202 -159 -268 -39 -66 -104 -176
-145 -245 -40 -69 -99 -168 -130 -220 -32 -52 -117 -196 -190 -320 -73 -124
-159 -268 -190 -320 -31 -52 -117 -196 -190 -320 -73 -124 -167 -281 -208
-349 -41 -68 -82 -138 -92 -155 -9 -17 -80 -137 -157 -266 -77 -129 -163 -273
-190 -320 -303 -510 -378 -633 -380 -620 -40 290 -99 455 -264 743 -16 29 -37
66 -46 84 l-16 31 359 419 c418 487 374 436 506 588 57 66 117 136 133 156 26
31 181 212 325 379 46 53 242 280 744 865 128 149 278 322 333 386 180 208
145 177 -176 -156 -141 -146 -332 -344 -581 -600 -80 -83 -215 -222 -300 -310
-85 -88 -220 -228 -300 -310 -80 -83 -273 -283 -430 -445 -157 -162 -353 -365
-435 -450 -83 -85 -191 -197 -240 -247 -49 -51 -93 -93 -98 -93 -5 0 -53 38
-106 83 -160 139 -367 290 -498 363 -29 16 -53 32 -53 36 0 8 27 28 262 194
79 55 226 159 328 231 102 72 268 190 370 261 102 72 228 161 280 198 52 37
169 120 260 184 91 64 244 172 340 240 96 68 297 209 445 313 519 365 1084
765 1114 788 37 29 14 22 -32 -10 -23 -15 -197 -127 -387 -248 -190 -121 -401
-256 -470 -301 -69 -44 -201 -129 -295 -188 -93 -60 -226 -144 -294 -189 -69
-44 -234 -150 -368 -235 -133 -85 -345 -221 -470 -301 -126 -80 -399 -255
-608 -389 -209 -134 -441 -282 -515 -330 -240 -155 -214 -143 -263 -126 -138
46 -421 86 -617 86 -144 0 -349 -22 -465 -49 -44 -11 -82 -18 -84 -16 -2 3 45
28 105 56 60 28 170 81 244 116 74 36 223 107 330 158 206 98 329 156 525 250
185 89 547 261 675 322 63 31 167 80 230 110 114 55 332 159 738 352 114 54
317 151 452 216 135 64 283 135 330 157 47 23 198 95 335 160 138 66 329 158
425 203 96 46 243 115 325 155 149 73 273 128 288 129 4 1 5 -16 1 -36z
m-4104 -2413 c124 -22 221 -49 231 -63 7 -10 -65 -265 -78 -277 -8 -9 -60 -36
-335 -179 l-157 -81 -48 19 c-70 28 -467 211 -476 220 -4 4 -24 65 -44 136
-43 149 -48 138 76 178 89 30 195 53 302 67 120 15 398 4 529 -20z m-1565 -99
c-6 -4 -46 -28 -90 -51 -153 -83 -356 -212 -492 -315 -341 -256 -537 -498
-629 -775 -26 -79 -27 -96 -28 -250 0 -150 3 -173 26 -246 14 -44 41 -113 60
-153 29 -60 33 -74 20 -78 -23 -9 -41 7 -115 98 -76 93 -147 229 -172 329 -22
84 -22 245 0 325 54 205 217 411 480 609 217 163 446 293 810 460 118 54 149
65 130 47z m2045 -547 c173 -129 327 -243 342 -252 18 -10 32 -30 38 -52 14
-54 62 -433 58 -464 -3 -26 -14 -32 -188 -97 -102 -38 -210 -80 -241 -94 -80
-35 -107 -33 -176 18 -32 24 -96 71 -143 105 -47 33 -168 122 -269 196 -102
75 -190 137 -195 139 -16 5 -27 488 -12 504 16 17 438 233 456 233 8 0 157
-106 330 -236z m-1093 115 c131 -61 241 -114 244 -117 4 -4 9 -116 12 -249 l6
-242 -242 -177 c-133 -98 -284 -209 -335 -247 l-93 -70 -55 6 c-59 6 -172 36
-369 96 l-120 37 -3 224 c-2 124 0 248 3 275 7 50 7 50 94 107 47 31 205 149
350 262 146 113 266 206 267 206 1 0 110 -50 241 -111z m1837 -263 c112 -151
252 -408 305 -561 48 -135 81 -324 81 -457 0 -47 -4 -68 -12 -69 -37 -4 -205
4 -215 10 -6 3 -94 94 -194 201 -100 107 -185 197 -189 200 -20 14 -33 66 -55
223 -13 94 -27 213 -30 263 l-7 91 123 90 c68 50 128 89 132 86 5 -3 32 -37
61 -77z m-2881 -99 l47 -39 0 -274 c0 -313 6 -288 -98 -437 -47 -68 -176 -246
-224 -309 -12 -15 -27 -16 -148 -10 l-135 7 -3 100 c-4 113 7 198 48 370 51
217 125 384 252 574 104 156 90 147 157 98 31 -23 77 -59 104 -80z m2691 -684
c44 -49 126 -134 181 -191 55 -57 101 -112 103 -124 2 -11 -2 -33 -8 -49 l-12
-29 -489 0 c-359 0 -489 3 -489 11 0 7 18 70 40 140 47 148 30 131 215 205
186 73 328 123 354 123 17 1 45 -23 105 -86z m-2416 -9 c191 -52 320 -94 330
-107 10 -13 92 -251 92 -267 0 -6 -163 -10 -460 -10 -253 0 -460 3 -460 6 0 4
22 36 48 73 27 36 64 89 82 116 18 28 65 92 103 143 l69 93 36 -7 c21 -4 92
-22 160 -40z m352 -1231 c0 -4 -10 -22 -22 -41 -22 -31 -26 -33 -68 -28 -60 6
-319 62 -327 70 -3 3 89 6 205 6 117 0 212 -3 212 -7z m1433 -43 c45 -58 56
-27 -100 -277 -62 -100 -120 -198 -130 -217 l-17 -36 -427 0 -427 0 -27 33
c-59 71 -305 425 -305 438 0 8 16 35 35 62 l35 47 663 0 662 -1 38 -49z m814
24 c24 -14 43 -30 41 -35 -6 -17 -275 -200 -448 -303 -96 -57 -231 -133 -300
-168 -130 -66 -309 -148 -322 -148 -5 0 -8 15 -8 33 0 23 26 75 93 183 50 83
112 186 137 229 64 110 93 132 257 187 l138 47 184 0 c180 1 185 0 228 -25z
m-2716 -9 c42 -8 112 -23 155 -34 43 -11 115 -27 158 -37 99 -21 111 -32 252
-229 60 -82 132 -183 161 -224 48 -66 66 -111 45 -111 -26 0 -370 179 -552
288 -122 73 -411 267 -460 310 -3 2 9 15 25 28 36 29 100 32 216 9z"/>
<path d="M9850 8579 c-173 -77 -349 -155 -390 -173 -41 -19 -133 -60 -205 -91
-431 -189 -494 -225 -623 -353 -121 -121 -213 -261 -258 -392 -16 -47 -36
-169 -63 -388 -45 -348 -50 -461 -25 -520 48 -115 183 -167 334 -127 36 9 121
42 190 72 69 30 341 151 605 268 264 117 500 221 525 232 l45 20 23 169 c24
179 26 204 16 204 -4 0 -255 -110 -558 -244 -829 -368 -767 -344 -800 -310
-18 18 -20 44 -6 128 5 34 21 162 35 286 30 261 44 314 92 364 40 41 90 67
398 202 121 53 381 168 578 255 197 87 362 159 367 159 6 0 10 4 10 8 0 8 39
325 43 351 1 8 -2 15 -8 17 -5 2 -152 -60 -325 -137z"/>
<path d="M7175 7395 c-143 -64 -294 -131 -335 -150 -41 -18 -210 -93 -375
-166 -165 -73 -399 -176 -520 -230 l-220 -97 -27 -219 c-14 -120 -31 -254 -37
-298 -43 -319 -132 -1067 -127 -1072 8 -9 376 158 377 171 0 6 17 143 37 304
l37 293 135 60 c74 34 169 75 210 93 41 19 95 42 120 54 65 29 212 94 310 137
47 20 123 54 170 75 47 21 108 48 135 61 28 12 79 34 115 50 l65 27 17 134 c9
73 19 157 23 186 7 60 3 62 -59 33 -43 -21 -513 -229 -701 -311 -60 -27 -162
-72 -225 -100 -142 -64 -251 -110 -259 -110 -9 0 16 212 26 221 5 4 64 32 133
62 69 30 150 66 180 80 30 14 271 120 535 237 264 117 483 215 486 219 6 5 49
325 49 359 0 7 -3 12 -7 12 -5 0 -125 -52 -268 -115z"/>
<path d="M4745 6320 c-22 -11 -87 -40 -145 -66 -58 -26 -134 -60 -170 -76 -36
-17 -85 -38 -110 -48 -25 -10 -74 -31 -110 -48 -103 -47 -231 -104 -425 -189
-99 -44 -300 -133 -446 -198 l-266 -118 -22 -181 c-12 -99 -31 -248 -41 -331
-51 -393 -118 -935 -127 -1023 l-6 -63 44 19 c127 55 325 145 330 151 4 3 24
141 44 306 20 165 38 301 39 302 1 1 68 31 150 68 81 36 167 74 190 84 22 10
156 69 296 131 140 62 282 124 315 139 33 15 115 52 183 82 90 39 124 59 127
74 8 34 44 350 40 353 -2 2 -135 -55 -297 -127 -735 -326 -951 -421 -955 -418
-3 4 10 119 22 193 6 34 -4 29 400 207 335 147 431 190 480 212 28 13 133 60
235 104 226 99 234 104 238 133 2 20 19 159 38 306 6 47 4 48 -51 22z"/>
<path d="M7925 8760 c-64 -27 -91 -44 -93 -58 -5 -29 44 -132 62 -132 28 0
198 72 203 86 9 24 -43 139 -63 141 -11 1 -59 -16 -109 -37z"/>
<path d="M3390 8017 c-205 -82 -257 -107 -269 -127 -13 -24 -10 -36 48 -180
76 -189 83 -200 121 -200 26 0 437 157 512 196 47 25 45 47 -27 228 -64 158
-82 187 -117 186 -7 -1 -128 -47 -268 -103z"/>
<path d="M4694 1984 c-85 -31 -134 -120 -120 -216 9 -61 41 -107 96 -138 38
-21 58 -25 130 -25 99 0 157 24 190 78 28 46 25 53 -24 66 -60 15 -86 14 -86
-3 0 -22 -49 -56 -81 -56 -15 0 -41 11 -56 24 -25 22 -28 31 -28 86 0 56 3 64
29 87 24 21 37 24 70 20 25 -4 46 -14 56 -27 14 -19 23 -21 62 -15 24 4 51 11
58 15 22 14 -3 55 -51 87 -37 24 -54 28 -123 30 -52 2 -96 -3 -122 -13z"/>
<path d="M6870 1962 c-39 -19 -55 -33 -55 -47 0 -13 -8 -21 -22 -23 -19 -3
-23 -10 -23 -42 0 -32 4 -39 23 -42 20 -3 22 -9 25 -68 3 -92 8 -108 42 -125
33 -17 96 -20 133 -6 20 8 23 15 19 40 -4 26 -9 31 -33 31 -33 0 -42 22 -37
86 3 36 6 39 36 42 30 3 32 6 32 42 0 36 -2 39 -32 42 -32 3 -33 5 -36 51 -2
26 -6 47 -10 46 -4 0 -32 -12 -62 -27z"/>
<path d="M5134 1881 c-26 -11 -66 -60 -58 -72 7 -12 124 -12 124 0 0 13 55 24
80 16 43 -14 20 -32 -62 -49 -114 -24 -134 -33 -149 -68 -10 -26 -10 -35 2
-57 28 -50 136 -64 208 -26 26 13 30 13 35 0 4 -11 22 -15 67 -15 52 0 60 2
55 16 -3 9 -6 56 -6 105 0 84 -2 90 -29 121 l-29 33 -109 2 c-59 2 -118 -1
-129 -6z"/>
<path d="M5561 1877 c-38 -19 -63 -62 -68 -114 -7 -69 15 -117 66 -142 47 -25
79 -26 126 -7 l34 15 3 -62 3 -62 63 -3 62 -3 0 196 0 195 -55 0 c-40 0 -56
-4 -63 -16 -9 -16 -11 -16 -33 0 -28 19 -103 21 -138 3z"/>
<path d="M5932 1775 c3 -108 5 -116 29 -141 44 -44 101 -43 192 4 4 2 7 -3 7
-12 0 -13 12 -16 60 -16 l60 0 0 140 0 141 -62 -3 -63 -3 -3 -85 c-3 -90 -12
-110 -46 -110 -38 0 -46 19 -46 112 l0 88 -66 0 -66 0 4 -115z"/>
<path d="M6435 1877 c-17 -8 -43 -29 -58 -46 -22 -27 -27 -42 -27 -86 0 -47 4
-58 33 -88 41 -44 101 -61 184 -54 67 7 107 23 136 55 19 20 18 21 -27 27 -25
4 -59 4 -74 0 -85 -21 -122 -14 -122 21 0 11 26 14 126 14 l126 0 -7 38 c-18
98 -54 125 -172 129 -60 2 -98 -1 -118 -10z"/>
<path d="M7123 1875 c-33 -14 -58 -48 -48 -65 10 -16 114 -12 131 5 19 19 68
19 83 1 16 -19 8 -23 -101 -46 -66 -14 -98 -26 -110 -41 -34 -41 -17 -92 37
-115 45 -18 83 -18 142 2 33 11 48 13 51 5 2 -6 28 -11 62 -11 l58 0 -5 108
c-3 59 -10 115 -15 125 -5 10 -25 25 -43 33 -45 18 -199 18 -242 -1z"/>
<path d="M10970 11498 c0 -13 5 -86 10 -163 44 -630 64 -1799 41 -2425 -50
-1345 -215 -2525 -504 -3610 -43 -160 -60 -219 -72 -260 -8 -25 -38 -119 -66
-210 -365 -1177 -888 -2171 -1584 -3009 -153 -185 -488 -528 -661 -678 -164
-141 -195 -167 -346 -281 -381 -286 -796 -523 -1180 -673 -76 -29 -136 -54
-134 -56 6 -6 336 107 464 158 288 116 659 315 926 497 486 330 992 817 1354
1302 22 30 59 79 81 108 108 139 252 357 424 642 611 1011 1105 2319 1442
3820 169 754 299 1536 385 2325 61 567 102 1124 120 1660 l11 320 -33 27 c-18
14 -121 95 -228 179 -107 84 -247 194 -310 244 -144 114 -140 112 -140 83z"/>
<path d="M918 9113 c-26 -54 -128 -269 -228 -477 l-182 -379 16 -81 c9 -45 36
-200 61 -346 171 -992 361 -1787 607 -2545 129 -398 315 -894 419 -1120 10
-22 50 -112 90 -200 146 -328 329 -676 537 -1025 107 -180 383 -583 489 -715
4 -5 32 -41 62 -80 189 -244 522 -602 741 -795 47 -41 87 -78 90 -81 3 -3 59
-50 125 -104 214 -176 456 -347 685 -485 173 -104 552 -292 748 -369 199 -79
539 -194 556 -188 6 2 -14 12 -44 22 -97 32 -277 113 -462 206 -475 242 -930
558 -1358 944 -92 83 -452 445 -521 525 -36 41 -88 100 -114 130 -248 281
-622 812 -827 1175 -25 44 -66 116 -91 161 -74 131 -269 526 -347 704 -531
1209 -845 2586 -955 4180 -22 333 -35 631 -35 848 0 105 -3 192 -8 192 -4 0
-28 -44 -54 -97z"/>
</g>
</svg>
